<svg width="16" height="17" viewBox="0 0 16 17" fill="none" xmlns="http://www.w3.org/2000/svg">
<path d="M8 0.5C5.87827 0.5 3.84344 1.34285 2.34315 2.84315C0.842855 4.34344 0 6.37827 0 8.5C0 10.6217 0.842855 12.6566 2.34315 14.1569C3.84344 15.6571 5.87827 16.5 8 16.5C10.1217 16.5 12.1566 15.6571 13.6569 14.1569C15.1571 12.6566 16 10.6217 16 8.5C16 6.37827 15.1571 4.34344 13.6569 2.84315C12.1566 1.34285 10.1217 0.5 8 0.5ZM2.04 4.826C2.365 6.155 4.572 7.366 5.757 8.016C6.237 8.279 6.55 8.45 6.5 8.5C6.42 8.58 6.338 8.658 6.258 8.734C5.842 9.13 5.471 9.483 5.5 10C5.535 10.634 6.118 10.824 6.714 11.017C7.291 11.205 7.882 11.397 8 12C8.082 12.417 7.925 12.988 7.78 13.52C7.565 14.302 7.374 15 8 15C9.5 14.5 11.798 11.814 12 10C12.138 8.757 10 8 8.5 7.5C8.022 7.34 7.745 7.581 7.51 7.784C7.338 7.934 7.188 8.063 7 8C6.555 7.852 4.5 6 5.5 5.5C6.28 5.11 6.452 5.329 6.727 5.682C6.805 5.781 6.89 5.89 7 6C7.609 6.304 7.662 5.868 7.723 5.367C7.762 5.045 7.804 4.696 8 4.5C8.434 4.066 9.265 3.709 10.028 3.38C10.74 3.074 11.393 2.793 11.607 2.5C12.7962 3.21513 13.7461 4.26759 14.3359 5.52369C14.9257 6.7798 15.1288 8.18286 14.9195 9.55468C14.7103 10.9265 14.0979 12.2051 13.1604 13.2282C12.2229 14.2513 11.0024 14.9726 9.65401 15.3006C8.30564 15.6286 6.89021 15.5484 5.58751 15.0702C4.28482 14.592 3.15364 13.7374 2.33766 12.615C1.52169 11.4926 1.05773 10.1529 1.00473 8.76625C0.951732 7.37958 1.31208 6.00744 2.04 4.826Z" fill="#111111"/>
</svg>