<svg width="9" height="5" viewBox="0 0 9 5" fill="none" xmlns="http://www.w3.org/2000/svg">
<path d="M4.16667 4.99999C4.06702 4.99999 3.97035 4.9809 3.87668 4.94274C3.78301 4.90457 3.70528 4.85368 3.6435 4.79006L0.20553 1.27862C0.0685099 1.13867 0 0.960557 0 0.744273C0 0.527988 0.0685099 0.349872 0.20553 0.209923C0.342551 0.0699741 0.516941 0 0.7287 0C0.940458 0 1.11485 0.0699741 1.25187 0.209923L4.16667 3.18702L7.08147 0.209923C7.21849 0.0699741 7.39288 0 7.60463 0C7.81639 0 7.99078 0.0699741 8.1278 0.209923C8.26482 0.349872 8.33333 0.527988 8.33333 0.744273C8.33333 0.960557 8.26482 1.13867 8.1278 1.27862L4.68984 4.79006C4.6151 4.8664 4.53413 4.9206 4.44694 4.95266C4.35974 4.98472 4.26632 5.0005 4.16667 4.99999Z" fill="#111111"/>
</svg>